<svg width="19" height="19" viewBox="0 0 19 19" fill="none" xmlns="http://www.w3.org/2000/svg">
<path d="M15.7344 2.375H12.4688V1.78125C12.4688 0.79748 11.6713 0 10.6875 0H8.3125C7.32873 0 6.53125 0.79748 6.53125 1.78125V2.375H3.26562C2.44584 2.375 1.78125 3.03959 1.78125 3.85938V5.04688C1.78125 5.37481 2.04706 5.64062 2.375 5.64062H16.625C16.9529 5.64062 17.2188 5.37481 17.2188 5.04688V3.85938C17.2188 3.03959 16.5542 2.375 15.7344 2.375ZM7.71875 1.78125C7.71875 1.45395 7.9852 1.1875 8.3125 1.1875H10.6875C11.0148 1.1875 11.2812 1.45395 11.2812 1.78125V2.375H7.71875V1.78125Z" fill="white"/>
<path d="M2.90807 6.82812C2.80213 6.82812 2.7177 6.91667 2.72275 7.0225L3.21259 17.3034C3.25787 18.2548 4.03939 19 4.99162 19H14.0085C14.9607 19 15.7422 18.2548 15.7875 17.3034L16.2773 7.0225C16.2824 6.91667 16.1979 6.82812 16.092 6.82812H2.90807ZM11.875 8.3125C11.875 7.98445 12.1407 7.71875 12.4688 7.71875C12.7968 7.71875 13.0625 7.98445 13.0625 8.3125V16.0312C13.0625 16.3593 12.7968 16.625 12.4688 16.625C12.1407 16.625 11.875 16.3593 11.875 16.0312V8.3125ZM8.90629 8.3125C8.90629 7.98445 9.17199 7.71875 9.50004 7.71875C9.82808 7.71875 10.0938 7.98445 10.0938 8.3125V16.0312C10.0938 16.3593 9.82808 16.625 9.50004 16.625C9.17199 16.625 8.90629 16.3593 8.90629 16.0312V8.3125ZM5.93754 8.3125C5.93754 7.98445 6.20324 7.71875 6.53129 7.71875C6.85933 7.71875 7.12504 7.98445 7.12504 8.3125V16.0312C7.12504 16.3593 6.85933 16.625 6.53129 16.625C6.20324 16.625 5.93754 16.3593 5.93754 16.0312V8.3125Z" fill="white"/>
</svg>
