<svg width="40" height="50" viewBox="0 0 40 50" fill="none" xmlns="http://www.w3.org/2000/svg">
<path d="M27.218 0.288773C26.9887 0.0473025 26.6744 -0.0976562 26.3486 -0.0976562H6.84363C3.24445 -0.0976562 0.27356 2.86141 0.27356 6.4602V43.3442C0.27356 46.9434 3.24445 49.9024 6.84363 49.9024H33.3169C36.9161 49.9024 39.887 46.9434 39.887 43.3442V14.0568C39.887 13.7429 39.742 13.4411 39.5368 13.2115L27.218 0.288773ZM27.5682 4.16566L35.8171 12.825H30.4547C28.8606 12.825 27.5682 11.5448 27.5682 9.95066V4.16566ZM33.3169 47.487H6.84363C4.58532 47.487 2.68903 45.6151 2.68903 43.3442V6.4602C2.68903 4.2019 4.57311 2.31781 6.84363 2.31781H25.1527V9.95066C25.1527 12.8853 27.5201 15.2405 30.4547 15.2405H37.4715V43.3442C37.4715 45.6151 35.5874 47.487 33.3169 47.487Z" fill="white"/>
<path d="M30.0198 39.1538H10.1406C9.47646 39.1538 8.93286 39.697 8.93286 40.3615C8.93286 41.0257 9.47646 41.5693 10.1406 41.5693H30.032C30.6961 41.5693 31.2397 41.0257 31.2397 40.3615C31.2397 39.697 30.6961 39.1538 30.0198 39.1538Z" fill="white"/>
<path d="M13.8966 26.1586L18.8725 20.8081V33.9967C18.8725 34.6608 19.4161 35.2044 20.0802 35.2044C20.7447 35.2044 21.2879 34.6608 21.2879 33.9967V20.8081L26.2638 26.1586C26.5053 26.4119 26.8196 26.545 27.1454 26.545C27.4353 26.545 27.7375 26.4363 27.9667 26.2189C28.45 25.76 28.4863 24.9989 28.0274 24.516L20.95 16.9194C20.7203 16.6779 20.4064 16.533 20.0684 16.533C19.73 16.533 19.4161 16.6779 19.1868 16.9194L12.1094 24.516C11.6505 24.9989 11.6867 25.7718 12.1697 26.2189C12.677 26.6778 13.4377 26.6415 13.8966 26.1586Z" fill="white"/>
</svg>
