<svg width="512" height="512" viewBox="0 0 512 512" fill="none" xmlns="http://www.w3.org/2000/svg">
<path d="M256 56C366.532 56 456 145.451 456 256C456 366.532 366.549 456 256 456C145.468 456 56 366.549 56 256C56 145.468 145.451 56 256 56ZM256 8C119.033 8 8 119.033 8 256C8 392.967 119.033 504 256 504C392.967 504 504 392.967 504 256C504 119.033 392.967 8 256 8ZM256 176C211.817 176 176 211.817 176 256C176 300.183 211.817 336 256 336C300.183 336 336 300.183 336 256C336 211.817 300.183 176 256 176Z" fill="black"/>
</svg>
