<svg width="43" height="43" viewBox="0 0 43 43" fill="none" xmlns="http://www.w3.org/2000/svg">
<circle cx="21.5" cy="21.5" r="21.5" fill="black" fill-opacity="0.4"/>
<g clip-path="url(#clip0)">
<path d="M23.9686 14.5272L12.4141 26.0825C12.356 26.1408 12.314 26.2144 12.294 26.2935L11.0133 31.434C10.975 31.5888 11.0205 31.7533 11.1334 31.8662C11.2189 31.9517 11.3353 31.999 11.4544 31.999C11.4909 31.999 11.5282 31.9945 11.5645 31.9853L16.705 30.7045C16.7851 30.6845 16.8579 30.6427 16.916 30.5845L28.4715 19.03L23.9686 14.5272Z" fill="white"/>
<path d="M31.3341 12.9516L30.0479 11.6654C29.1882 10.8058 27.69 10.8066 26.8314 11.6654L25.2559 13.241L29.7586 17.7437L31.3341 16.1682C31.7635 15.7389 32 15.1676 32 14.56C32 13.9524 31.7635 13.381 31.3341 12.9516Z" fill="white"/>
</g>
<defs>
<clipPath id="clip0">
<rect width="21" height="21" fill="white" transform="translate(11 11)"/>
</clipPath>
</defs>
</svg>
