<svg width="17" height="17" viewBox="0 0 17 17" fill="none" xmlns="http://www.w3.org/2000/svg">
<path d="M13.9643 0H3.0357C1.35995 0.00199219 0.00199219 1.35995 0 3.0357V13.9643C0.00199219 15.64 1.35995 16.998 3.0357 17H13.9643C15.64 16.998 16.998 15.64 17 13.9643V3.0357C16.998 1.35995 15.64 0.00199219 13.9643 0ZM15.7857 13.9643C15.7857 14.9702 14.9702 15.7857 13.9643 15.7857H3.0357C2.02975 15.7857 1.21427 14.9702 1.21427 13.9643V3.0357C1.21427 2.02975 2.02975 1.21427 3.0357 1.21427H13.9643C14.9702 1.21427 15.7857 2.02975 15.7857 3.0357V13.9643Z" fill="white"/>
<path d="M11.5358 7.89291H9.10718V5.46433C9.10718 5.129 8.83536 4.85718 8.50003 4.85718C8.1647 4.85718 7.89287 5.129 7.89287 5.46433V7.89291H5.46433C5.129 7.89291 4.85718 8.16474 4.85718 8.50006C4.85718 8.83539 5.129 9.10718 5.46433 9.10718H7.89291V11.5358C7.89291 11.8711 8.16474 12.1429 8.50006 12.1429C8.83539 12.1429 9.10718 11.8711 9.10718 11.5358V9.10718H11.5358C11.8711 9.10718 12.1429 8.83536 12.1429 8.50003C12.1429 8.1647 11.8711 7.89291 11.5358 7.89291Z" fill="white"/>
</svg>
