<svg width="43" height="43" viewBox="0 0 43 43" fill="none" xmlns="http://www.w3.org/2000/svg">
<circle cx="21.5" cy="21.5" r="21.5" fill="black" fill-opacity="0.4"/>
<path d="M29.875 13H25.75V12.25C25.75 11.0073 24.7427 10 23.5 10H20.5C19.2573 10 18.25 11.0073 18.25 12.25V13H14.125C13.0895 13 12.25 13.8395 12.25 14.875V16.375C12.25 16.7892 12.5858 17.125 13 17.125H31C31.4142 17.125 31.75 16.7892 31.75 16.375V14.875C31.75 13.8395 30.9105 13 29.875 13ZM19.75 12.25C19.75 11.8366 20.0866 11.5 20.5 11.5H23.5C23.9134 11.5 24.25 11.8366 24.25 12.25V13H19.75V12.25Z" fill="white"/>
<path d="M13.6733 18.625C13.5395 18.625 13.4329 18.7368 13.4392 18.8705L14.058 31.8569C14.1152 33.0588 15.1024 34 16.3052 34H27.6949C28.8977 34 29.8849 33.0588 29.9421 31.8569L30.5608 18.8705C30.5672 18.7368 30.4605 18.625 30.3267 18.625H13.6733ZM25 20.5C25 20.0856 25.3356 19.75 25.75 19.75C26.1644 19.75 26.5 20.0856 26.5 20.5V30.25C26.5 30.6644 26.1644 31 25.75 31C25.3356 31 25 30.6644 25 30.25V20.5ZM21.25 20.5C21.25 20.0856 21.5856 19.75 22 19.75C22.4144 19.75 22.75 20.0856 22.75 20.5V30.25C22.75 30.6644 22.4144 31 22 31C21.5856 31 21.25 30.6644 21.25 30.25V20.5ZM17.5 20.5C17.5 20.0856 17.8356 19.75 18.25 19.75C18.6644 19.75 19 20.0856 19 20.5V30.25C19 30.6644 18.6644 31 18.25 31C17.8356 31 17.5 30.6644 17.5 30.25V20.5Z" fill="white"/>
</svg>
